<?xml version="1.0" encoding="utf-8"?>
<!-- Generator: Adobe Illustrator 25.4.1, SVG Export Plug-In . SVG Version: 6.00 Build 0)  -->
<svg version="1.1" id="Layer_1" xmlns="http://www.w3.org/2000/svg" xmlns:xlink="http://www.w3.org/1999/xlink" x="0px" y="0px"
	 viewBox="0 0 1024 1280" style="enable-background:new 0 0 1024 1280;" xml:space="preserve">
<style type="text/css">
	.st0{fill:#CCD6F6;}
</style>
<g>
	<g>
		<g>
			<path class="st0" d="M849.5,527.4c0,27.7,0,55.3,0,83c0,41.8,0,83.6,0,125.4c0,13.9,0.4,27.8-1.4,41.6c0.7-5.3,1.4-10.6,2.1-16
				c-1.9,13.4-5.4,26.3-10.6,38.8c2-4.8,4-9.6,6-14.3c-5.2,12.1-11.8,23.5-19.8,33.9c3.1-4,6.3-8.1,9.4-12.1
				c-8,10.3-17.3,19.6-27.6,27.6c4-3.1,8.1-6.3,12.1-9.4c-10.5,8-21.8,14.7-33.9,19.8c4.8-2,9.6-4,14.3-6
				c-12.4,5.2-25.4,8.7-38.8,10.6c5.3-0.7,10.6-1.4,16-2.1c-20.9,2.7-42.7,1.4-63.7,1.4c-39.9,0-79.7,0-119.6,0
				c-48.9,0-97.9,0-146.8,0c-41.7,0-83.5,0-125.2,0c-18.2,0-36.4,0.1-54.5,0c-7,0-13.9-0.5-20.8-1.4c5.3,0.7,10.6,1.4,16,2.1
				c-13.4-1.9-26.3-5.4-38.8-10.6c4.8,2,9.6,4,14.3,6c-12.1-5.2-23.5-11.8-33.9-19.8c4,3.1,8.1,6.3,12.1,9.4
				c-10.3-8-19.6-17.3-27.6-27.6c3.1,4,6.3,8.1,9.4,12.1c-8-10.5-14.7-21.8-19.8-33.9c2,4.8,4,9.6,6,14.3
				c-5.2-12.4-8.7-25.4-10.6-38.8c0.7,5.3,1.4,10.6,2.1,16c-2.7-20.9-1.4-42.7-1.4-63.7c0-39.9,0-79.7,0-119.6
				c0-48.9,0-97.9,0-146.8c0-41.7,0-83.5,0-125.2c0-18.2-0.1-36.4,0-54.5c0-7,0.5-13.9,1.4-20.8c-0.7,5.3-1.4,10.6-2.1,16
				c1.9-13.4,5.4-26.3,10.6-38.8c-2,4.8-4,9.6-6,14.3c5.2-12.1,11.8-23.5,19.8-33.9c-3.1,4-6.3,8.1-9.4,12.1
				c8-10.3,17.3-19.6,27.6-27.6c-4,3.1-8.1,6.3-12.1,9.4c10.5-8,21.8-14.7,33.9-19.8c-4.8,2-9.6,4-14.3,6
				c12.4-5.2,25.4-8.7,38.8-10.6c-5.3,0.7-10.6,1.4-16,2.1c12.1-1.6,24.3-1.4,36.5-1.4c17.7,0,35.4,0,53.1,0c43.2,0,86.5,0,129.7,0
				c10.2,0,20.5,0,30.7,0c15.4,0,31.5-6.7,42.4-17.6c10.4-10.4,18.2-27.5,17.6-42.4c-0.7-15.5-5.8-31.6-17.6-42.4
				c-11.7-10.8-26.2-17.6-42.4-17.6c-25.3,0-50.6,0-75.8,0c-40.9,0-81.8,0-122.7,0c-9.9,0-19.9,0-29.8,0c-34.7,0-67.5,8.5-98.5,23.8
				c-17.2,8.5-33.1,20.4-47.3,33.2c-14,12.7-26.2,28.1-36.2,44c-20.9,33-31.6,73-31.8,111.9c-0.1,14,0,28,0,42.1
				c0,34.4,0,68.8,0,103.2c0,43.3,0,86.5,0,129.8c0,40.6,0,81.2,0,121.8c0,26.4,0,52.9,0,79.3c0,4.3,0,8.6,0,13
				c0.1,37.1,9.9,74.2,28.4,106.4c37.6,65.5,109.4,106.3,184.6,106.6c15.5,0.1,31,0,46.5,0c35.2,0,70.4,0,105.6,0
				c43.4,0,86.8,0,130.2,0c40.1,0,80.2,0,120.3,0c25.3,0,50.6,0,75.9,0c44.1,0,87.9-8.8,125.2-33.6c31.7-21,59.7-49.9,75.9-84.7
				c8.2-17.7,15.4-35.8,18.4-55.2c2.1-13.5,3.9-27,3.9-40.7c0-29.7,0-59.3,0-89c0-39.4,0-78.7,0-118.1c0-7,0-13.9,0-20.9
				c0-15.4-6.7-31.5-17.6-42.4c-10.4-10.4-27.5-18.2-42.4-17.6c-15.5,0.7-31.6,5.8-42.4,17.6C856.3,496.7,849.5,511.1,849.5,527.4
				L849.5,527.4z"/>
		</g>
	</g>
	<g>
		<g>
			<path class="st0" d="M687.5,174.5c25,0,50.1,0,75.1,0c39.9,0,79.7,0,119.6,0c9.1,0,18.2,0,27.3,0c15.4,0,31.5-6.7,42.4-17.6
				c10.4-10.4,18.2-27.5,17.6-42.4c-0.7-15.5-5.8-31.6-17.6-42.4c-11.7-10.8-26.2-17.6-42.4-17.6c-25,0-50.1,0-75.1,0
				c-39.9,0-79.7,0-119.6,0c-9.1,0-18.2,0-27.3,0c-15.4,0-31.5,6.7-42.4,17.6c-10.4,10.4-18.2,27.5-17.6,42.4
				c0.7,15.5,5.8,31.6,17.6,42.4C656.8,167.7,671.2,174.5,687.5,174.5L687.5,174.5z"/>
		</g>
	</g>
	<g>
		<g>
			<path class="st0" d="M969.5,336.5c0-25,0-50.1,0-75.1c0-39.9,0-79.7,0-119.6c0-9.1,0-18.2,0-27.3c0-15.4-6.7-31.5-17.6-42.4
				c-10.4-10.4-27.5-18.2-42.4-17.6c-15.5,0.7-31.6,5.8-42.4,17.6c-10.8,11.7-17.6,26.2-17.6,42.4c0,25,0,50.1,0,75.1
				c0,39.9,0,79.7,0,119.6c0,9.1,0,18.2,0,27.3c0,15.4,6.7,31.5,17.6,42.4c10.4,10.4,27.5,18.2,42.4,17.6
				c15.5-0.7,31.6-5.8,42.4-17.6C962.7,367.2,969.5,352.8,969.5,336.5L969.5,336.5z"/>
		</g>
	</g>
	<g>
		<g>
			<path class="st0" d="M555.2,553.6c13.2-13.2,26.5-26.5,39.7-39.7c31.5-31.5,63.1-63.1,94.6-94.6c38.1-38.1,76.2-76.2,114.4-114.4
				c33.1-33.1,66.1-66.1,99.2-99.2c16-16,32.3-31.9,48.1-48.1c0.2-0.2,0.4-0.4,0.7-0.7c10.9-10.9,17.6-27,17.6-42.4
				c0-14.7-6.5-32.3-17.6-42.4c-11.4-10.5-26.4-18.3-42.4-17.6c-15.9,0.7-30.9,6.1-42.4,17.6c-13.2,13.2-26.5,26.5-39.7,39.7
				c-31.5,31.5-63.1,63.1-94.6,94.6c-38.1,38.1-76.2,76.2-114.4,114.4c-33.1,33.1-66.1,66.1-99.2,99.2c-16,16-32.3,31.9-48.1,48.1
				c-0.2,0.2-0.4,0.4-0.7,0.7c-10.9,10.9-17.6,27-17.6,42.4c0,14.7,6.5,32.3,17.6,42.4c11.4,10.5,26.4,18.3,42.4,17.6
				C528.7,570.5,543.8,565.1,555.2,553.6L555.2,553.6z"/>
		</g>
	</g>
</g>
</svg>
